<mxfile host="app.diagrams.net" modified="2023-05-28T23:00:35.003Z" agent="Mozilla/5.0 (Windows NT 10.0; Win64; x64) AppleWebKit/537.36 (KHTML, like Gecko) Chrome/112.0.0.0 Safari/537.36 OPR/98.0.0.0" etag="Uu4vV66gp6sAebfs8PdM" version="21.2.9" type="device">
  <diagram name="Página-1" id="5sMb_6sD4tTjlBre0oVN">
    <mxGraphModel dx="2033" dy="766" grid="1" gridSize="10" guides="1" tooltips="1" connect="1" arrows="1" fold="1" page="1" pageScale="1" pageWidth="827" pageHeight="1169" math="0" shadow="0">
      <root>
        <mxCell id="0" />
        <mxCell id="1" parent="0" />
        <mxCell id="3nhcAS1rfj_lW7e5kq6N-38" style="edgeStyle=orthogonalEdgeStyle;rounded=0;orthogonalLoop=1;jettySize=auto;html=1;entryX=0;entryY=0;entryDx=0;entryDy=85;entryPerimeter=0;endArrow=none;endFill=0;" parent="1" source="3nhcAS1rfj_lW7e5kq6N-1" target="3nhcAS1rfj_lW7e5kq6N-4" edge="1">
          <mxGeometry relative="1" as="geometry" />
        </mxCell>
        <mxCell id="3nhcAS1rfj_lW7e5kq6N-1" value="Servidor Web da Aplicação" style="verticalAlign=top;align=left;spacingTop=8;spacingLeft=2;spacingRight=12;shape=cube;size=10;direction=south;fontStyle=4;html=1;whiteSpace=wrap;" parent="1" vertex="1">
          <mxGeometry x="170" y="260" width="650" height="200" as="geometry" />
        </mxCell>
        <mxCell id="3nhcAS1rfj_lW7e5kq6N-4" value="Servidor Banco de Dados" style="verticalAlign=top;align=left;spacingTop=8;spacingLeft=2;spacingRight=12;shape=cube;size=10;direction=south;fontStyle=4;html=1;whiteSpace=wrap;" parent="1" vertex="1">
          <mxGeometry x="400" y="566" width="180" height="120" as="geometry" />
        </mxCell>
        <mxCell id="3nhcAS1rfj_lW7e5kq6N-5" value="«DataBase»&lt;br&gt;&lt;b&gt;MySQL DB&lt;/b&gt;" style="html=1;dropTarget=0;whiteSpace=wrap;" parent="1" vertex="1">
          <mxGeometry x="420" y="606" width="140" height="70" as="geometry" />
        </mxCell>
        <mxCell id="3nhcAS1rfj_lW7e5kq6N-6" value="" style="shape=module;jettyWidth=8;jettyHeight=4;" parent="3nhcAS1rfj_lW7e5kq6N-5" vertex="1">
          <mxGeometry x="1" width="20" height="20" relative="1" as="geometry">
            <mxPoint x="-27" y="7" as="offset" />
          </mxGeometry>
        </mxCell>
        <mxCell id="3nhcAS1rfj_lW7e5kq6N-35" style="edgeStyle=orthogonalEdgeStyle;rounded=0;orthogonalLoop=1;jettySize=auto;html=1;entryX=0;entryY=0;entryDx=0;entryDy=320;entryPerimeter=0;endArrow=none;endFill=0;" parent="1" source="3nhcAS1rfj_lW7e5kq6N-7" target="3nhcAS1rfj_lW7e5kq6N-1" edge="1">
          <mxGeometry relative="1" as="geometry" />
        </mxCell>
        <mxCell id="3nhcAS1rfj_lW7e5kq6N-7" value="Smartphone" style="verticalAlign=top;align=left;spacingTop=8;spacingLeft=2;spacingRight=12;shape=cube;size=10;direction=south;fontStyle=4;html=1;whiteSpace=wrap;" parent="1" vertex="1">
          <mxGeometry x="562" y="20" width="388" height="170" as="geometry" />
        </mxCell>
        <mxCell id="3nhcAS1rfj_lW7e5kq6N-19" value="&lt;br&gt;" style="endArrow=open;endSize=12;dashed=1;html=1;rounded=0;labelPosition=right;verticalLabelPosition=bottom;align=left;verticalAlign=top;exitX=0.5;exitY=1;exitDx=0;exitDy=0;entryX=1;entryY=0;entryDx=0;entryDy=0;" parent="1" source="W0WweKe5pemqktt532Up-1" target="3nhcAS1rfj_lW7e5kq6N-28" edge="1">
          <mxGeometry width="160" relative="1" as="geometry">
            <mxPoint x="810" y="161.88" as="sourcePoint" />
            <mxPoint x="990" y="530" as="targetPoint" />
          </mxGeometry>
        </mxCell>
        <mxCell id="3nhcAS1rfj_lW7e5kq6N-36" style="edgeStyle=orthogonalEdgeStyle;rounded=0;orthogonalLoop=1;jettySize=auto;html=1;entryX=0;entryY=0;entryDx=0;entryDy=320;entryPerimeter=0;endArrow=none;endFill=0;" parent="1" source="3nhcAS1rfj_lW7e5kq6N-23" target="3nhcAS1rfj_lW7e5kq6N-1" edge="1">
          <mxGeometry relative="1" as="geometry" />
        </mxCell>
        <mxCell id="3nhcAS1rfj_lW7e5kq6N-23" value="Website" style="verticalAlign=top;align=left;spacingTop=8;spacingLeft=2;spacingRight=12;shape=cube;size=10;direction=south;fontStyle=4;html=1;whiteSpace=wrap;" parent="1" vertex="1">
          <mxGeometry x="20" y="20" width="415" height="170" as="geometry" />
        </mxCell>
        <mxCell id="3nhcAS1rfj_lW7e5kq6N-24" value="«html»&lt;br&gt;&lt;b&gt;auth/login.blade.php&lt;/b&gt;" style="html=1;dropTarget=0;whiteSpace=wrap;" parent="1" vertex="1">
          <mxGeometry x="100" y="89.06" width="230" height="31.88" as="geometry" />
        </mxCell>
        <mxCell id="3nhcAS1rfj_lW7e5kq6N-25" value="" style="shape=module;jettyWidth=8;jettyHeight=4;" parent="3nhcAS1rfj_lW7e5kq6N-24" vertex="1">
          <mxGeometry x="1" width="20" height="20" relative="1" as="geometry">
            <mxPoint x="-27" y="7" as="offset" />
          </mxGeometry>
        </mxCell>
        <mxCell id="3nhcAS1rfj_lW7e5kq6N-28" value="«API»&lt;br&gt;&lt;b&gt;AutenticacaoController.java&lt;/b&gt;" style="html=1;dropTarget=0;whiteSpace=wrap;" parent="1" vertex="1">
          <mxGeometry x="370" y="300" width="235" height="31.88" as="geometry" />
        </mxCell>
        <mxCell id="3nhcAS1rfj_lW7e5kq6N-29" value="" style="shape=module;jettyWidth=8;jettyHeight=4;" parent="3nhcAS1rfj_lW7e5kq6N-28" vertex="1">
          <mxGeometry x="1" width="20" height="20" relative="1" as="geometry">
            <mxPoint x="-27" y="7" as="offset" />
          </mxGeometry>
        </mxCell>
        <mxCell id="3nhcAS1rfj_lW7e5kq6N-30" value="«API»&lt;br&gt;&lt;b&gt;UsuarioController.java&lt;/b&gt;" style="html=1;dropTarget=0;whiteSpace=wrap;" parent="1" vertex="1">
          <mxGeometry x="185" y="350" width="235" height="29.01" as="geometry" />
        </mxCell>
        <mxCell id="3nhcAS1rfj_lW7e5kq6N-31" value="" style="shape=module;jettyWidth=8;jettyHeight=4;" parent="3nhcAS1rfj_lW7e5kq6N-30" vertex="1">
          <mxGeometry x="1" width="20" height="20" relative="1" as="geometry">
            <mxPoint x="-27" y="7" as="offset" />
          </mxGeometry>
        </mxCell>
        <mxCell id="3nhcAS1rfj_lW7e5kq6N-32" value="«API»&lt;br&gt;&lt;b&gt;ConcessionariaController.java&lt;/b&gt;" style="html=1;dropTarget=0;whiteSpace=wrap;" parent="1" vertex="1">
          <mxGeometry x="527.5" y="349.01" width="235" height="30" as="geometry" />
        </mxCell>
        <mxCell id="3nhcAS1rfj_lW7e5kq6N-33" value="" style="shape=module;jettyWidth=8;jettyHeight=4;" parent="3nhcAS1rfj_lW7e5kq6N-32" vertex="1">
          <mxGeometry x="1" width="20" height="20" relative="1" as="geometry">
            <mxPoint x="-27" y="7" as="offset" />
          </mxGeometry>
        </mxCell>
        <mxCell id="3nhcAS1rfj_lW7e5kq6N-37" value="&amp;lt;&amp;lt;HTTPS&amp;gt;&amp;gt;" style="text;html=1;align=center;verticalAlign=middle;resizable=0;points=[];autosize=1;strokeColor=none;fillColor=none;" parent="1" vertex="1">
          <mxGeometry x="460" y="200" width="90" height="30" as="geometry" />
        </mxCell>
        <mxCell id="3nhcAS1rfj_lW7e5kq6N-39" value="&amp;lt;&amp;lt;LAN&amp;gt;&amp;gt;" style="text;html=1;align=center;verticalAlign=middle;resizable=0;points=[];autosize=1;strokeColor=none;fillColor=none;" parent="1" vertex="1">
          <mxGeometry x="420" y="513" width="70" height="30" as="geometry" />
        </mxCell>
        <mxCell id="3nhcAS1rfj_lW7e5kq6N-40" value="«API»&lt;br&gt;&lt;b&gt;CarroController.java&lt;/b&gt;" style="html=1;dropTarget=0;whiteSpace=wrap;" parent="1" vertex="1">
          <mxGeometry x="180" y="400" width="240" height="30" as="geometry" />
        </mxCell>
        <mxCell id="3nhcAS1rfj_lW7e5kq6N-41" value="" style="shape=module;jettyWidth=8;jettyHeight=4;" parent="3nhcAS1rfj_lW7e5kq6N-40" vertex="1">
          <mxGeometry x="1" width="20" height="20" relative="1" as="geometry">
            <mxPoint x="-27" y="7" as="offset" />
          </mxGeometry>
        </mxCell>
        <mxCell id="3nhcAS1rfj_lW7e5kq6N-42" value="«API»&lt;br&gt;&lt;b&gt;AgendamentoController.java&lt;/b&gt;" style="html=1;dropTarget=0;whiteSpace=wrap;" parent="1" vertex="1">
          <mxGeometry x="523.75" y="398.02" width="242.5" height="31.98" as="geometry" />
        </mxCell>
        <mxCell id="3nhcAS1rfj_lW7e5kq6N-43" value="" style="shape=module;jettyWidth=8;jettyHeight=4;" parent="3nhcAS1rfj_lW7e5kq6N-42" vertex="1">
          <mxGeometry x="1" width="20" height="20" relative="1" as="geometry">
            <mxPoint x="-27" y="7" as="offset" />
          </mxGeometry>
        </mxCell>
        <mxCell id="3nhcAS1rfj_lW7e5kq6N-50" value="&lt;br&gt;" style="endArrow=open;endSize=12;dashed=1;html=1;rounded=0;labelPosition=right;verticalLabelPosition=bottom;align=left;verticalAlign=top;exitX=0.5;exitY=1;exitDx=0;exitDy=0;entryX=0;entryY=0;entryDx=0;entryDy=0;" parent="1" source="3nhcAS1rfj_lW7e5kq6N-24" target="3nhcAS1rfj_lW7e5kq6N-28" edge="1">
          <mxGeometry width="160" relative="1" as="geometry">
            <mxPoint x="840" y="192" as="sourcePoint" />
            <mxPoint x="635" y="330" as="targetPoint" />
          </mxGeometry>
        </mxCell>
        <mxCell id="W0WweKe5pemqktt532Up-1" value="«html»&lt;br&gt;&lt;b&gt;auth/login.blade.php&lt;/b&gt;" style="html=1;dropTarget=0;whiteSpace=wrap;" parent="1" vertex="1">
          <mxGeometry x="630" y="89.06" width="230" height="31.88" as="geometry" />
        </mxCell>
        <mxCell id="W0WweKe5pemqktt532Up-2" value="" style="shape=module;jettyWidth=8;jettyHeight=4;" parent="W0WweKe5pemqktt532Up-1" vertex="1">
          <mxGeometry x="1" width="20" height="20" relative="1" as="geometry">
            <mxPoint x="-27" y="7" as="offset" />
          </mxGeometry>
        </mxCell>
      </root>
    </mxGraphModel>
  </diagram>
</mxfile>
